<svg height="512pt" viewBox="-10 0 512 512.00025" width="512pt" xmlns="http://www.w3.org/2000/svg"><path d="m245.183594 193.675781h-229.730469v-50.480469c0-2.84375 2.304687-5.152343 5.152344-5.152343h183.371093c22.757813 0 41.207032 18.449219 41.207032 41.207031zm0 0" fill="#ddd"/><path d="m246.214844 193.675781h229.726562v-50.480469c0-2.84375-2.304687-5.152343-5.148437-5.152343h-183.371094c-22.757813 0-41.207031 18.449219-41.207031 41.207031zm0 0" fill="#ddd"/><path d="m475.941406 143.195312v50.480469h-30.902344v-50.480469c0-2.84375-2.308593-5.152343-5.152343-5.152343h30.90625c2.84375 0 5.148437 2.308593 5.148437 5.152343zm0 0" fill="#c4c4c4"/><path d="m486.246094 183.371094h-481.09375c-2.847656 0-5.152344 2.308594-5.152344 5.152344v288.449218c0 11.378906 9.226562 20.605469 20.605469 20.605469h450.1875c11.378906 0 20.605469-9.226563 20.605469-20.605469v-288.449218c-.003907-2.84375-2.308594-5.152344-5.152344-5.152344zm0 0" fill="#ff9d4d"/><path d="m212.21875 183.371094v316.265625c0 6.828125 5.535156 12.363281 12.359375 12.363281h42.238281c6.828125 0 12.363282-5.535156 12.363282-12.363281v-316.265625zm0 0" fill="#e28844"/><g fill="#ffe164"><path d="m247.53125 1.140625 14.449219 29.28125c.300781.601563.875 1.019531 1.539062 1.117187l32.316407 4.695313c1.675781.242187 2.34375 2.304687 1.132812 3.484375l-23.386719 22.792969c-.480469.46875-.699219 1.144531-.585937 1.808593l5.519531 32.183594c.285156 1.671875-1.464844 2.941406-2.964844 2.15625l-28.902343-15.199218c-.59375-.3125-1.304688-.3125-1.902344 0l-28.902344 15.199218c-1.5.785156-3.25-.488281-2.964844-2.15625l5.519532-32.183594c.113281-.664062-.105469-1.339843-.585938-1.808593l-23.382812-22.792969c-1.214844-1.179688-.542969-3.242188 1.128906-3.484375l32.316406-4.695313c.664062-.097656 1.238281-.515624 1.539062-1.117187l14.449219-29.28125c.753907-1.519531 2.917969-1.519531 3.667969 0zm0 0"/><path d="m383.523438 33.152344 8.917968 18.617187c.296875.613281.878906 1.042969 1.554688 1.144531l20.039062 3c1.671875.25 2.347656 2.296876 1.15625 3.492188l-14.578125 14.640625c-.46875.46875-.683593 1.136719-.574219 1.792969l3.433594 20.605468c.28125 1.695313-1.507812 2.96875-3.015625 2.152344l-17.8125-9.644531c-.609375-.332031-1.347656-.332031-1.960937 0l-17.808594 9.644531c-1.511719.816406-3.296875-.460937-3.015625-2.152344l3.429687-20.605468c.109376-.65625-.101562-1.324219-.570312-1.792969l-14.578125-14.640625c-1.195313-1.195312-.515625-3.238281 1.152344-3.492188l20.042969-3c.675781-.101562 1.257812-.53125 1.550781-1.144531l8.921875-18.617187c.746094-1.558594 2.964844-1.558594 3.714844 0zm0 0"/><path d="m106.839844 33.152344-8.917969 18.617187c-.292969.613281-.875 1.042969-1.554687 1.144531l-20.039063 3c-1.671875.25-2.347656 2.296876-1.15625 3.492188l14.582031 14.640625c.464844.46875.679688 1.136719.570313 1.792969l-3.429688 20.605468c-.285156 1.695313 1.503907 2.96875 3.011719 2.152344l17.8125-9.644531c.613281-.332031 1.347656-.332031 1.960938 0l17.8125 9.644531c1.507812.816406 3.292968-.460937 3.011718-2.152344l-3.429687-20.605468c-.109375-.65625.105469-1.324219.570312-1.792969l14.582031-14.640625c1.191407-1.195312.515626-3.238281-1.15625-3.492188l-20.042968-3c-.675782-.101562-1.257813-.53125-1.550782-1.144531l-8.917968-18.617187c-.75-1.558594-2.96875-1.558594-3.71875 0zm0 0"/></g><path d="m450.1875 329.660156h-129.800781c-2.84375 0-5.152344-2.308594-5.152344-5.152344v-99.929687c0-2.84375 2.308594-5.148437 5.152344-5.148437h129.800781c2.847656 0 5.152344 2.304687 5.152344 5.148437v99.929687c0 2.84375-2.304688 5.152344-5.152344 5.152344zm0 0" fill="#fcd09f"/><path d="m447.613281 368.289062h-124.652343c-4.265626 0-7.726563-3.457031-7.726563-7.726562 0-4.265625 3.460937-7.722656 7.726563-7.722656h124.652343c4.269531 0 7.726563 3.457031 7.726563 7.722656 0 4.269531-3.457032 7.726562-7.726563 7.726562zm0 0" fill="#cc661b"/><path d="m407.4375 398.164062h-84.476562c-4.265626 0-7.726563-3.457031-7.726563-7.726562 0-4.265625 3.460937-7.722656 7.726563-7.722656h84.476562c4.265625 0 7.726562 3.457031 7.726562 7.722656 0 4.269531-3.460937 7.726562-7.726562 7.726562zm0 0" fill="#cc661b"/><path d="m491.394531 188.523438v288.449218c0 11.386719-9.21875 20.605469-20.601562 20.605469h-30.90625c11.382812 0 20.605469-9.21875 20.605469-20.605469v-288.449218c0-2.84375-2.308594-5.152344-5.152344-5.152344h30.90625c2.84375 0 5.148437 2.308594 5.148437 5.152344zm0 0" fill="#d37631"/></svg>